<mxfile host="app.diagrams.net" modified="2024-04-30T22:18:58.127Z" agent="Mozilla/5.0 (Windows NT 10.0; Win64; x64; rv:125.0) Gecko/20100101 Firefox/125.0" etag="fAqtUjuJ5-H6AeqDIdqa" version="24.3.1" type="github">
  <diagram id="C5RBs43oDa-KdzZeNtuy" name="Page-1">
    <mxGraphModel dx="1195" dy="622" grid="1" gridSize="10" guides="1" tooltips="1" connect="1" arrows="1" fold="1" page="1" pageScale="1" pageWidth="827" pageHeight="1169" math="0" shadow="0">
      <root>
        <mxCell id="WIyWlLk6GJQsqaUBKTNV-0" />
        <mxCell id="WIyWlLk6GJQsqaUBKTNV-1" parent="WIyWlLk6GJQsqaUBKTNV-0" />
        <mxCell id="ElD5oWMp5ReGH6Nlb56h-3" value="Smartphone" style="swimlane;whiteSpace=wrap;html=1;direction=east;" vertex="1" parent="WIyWlLk6GJQsqaUBKTNV-1">
          <mxGeometry x="214" y="40" width="400" height="520" as="geometry">
            <mxRectangle x="280" y="40" width="110" height="30" as="alternateBounds" />
          </mxGeometry>
        </mxCell>
        <mxCell id="zkfFHV4jXpPFQw0GAbJ--1" value="- counter: int" style="text;align=left;verticalAlign=top;spacingLeft=4;spacingRight=4;overflow=hidden;rotatable=0;points=[[0,0.5],[1,0.5]];portConstraint=eastwest;fontStyle=4" parent="ElD5oWMp5ReGH6Nlb56h-3" vertex="1">
          <mxGeometry y="24" width="360" height="26" as="geometry" />
        </mxCell>
        <mxCell id="ElD5oWMp5ReGH6Nlb56h-7" value="- hersteller: String" style="text;align=left;verticalAlign=top;spacingLeft=4;spacingRight=4;overflow=hidden;rotatable=0;points=[[0,0.5],[1,0.5]];portConstraint=eastwest;fontStyle=0" vertex="1" parent="ElD5oWMp5ReGH6Nlb56h-3">
          <mxGeometry y="50" width="360" height="26" as="geometry" />
        </mxCell>
        <mxCell id="ElD5oWMp5ReGH6Nlb56h-8" value="- modell: String" style="text;align=left;verticalAlign=top;spacingLeft=4;spacingRight=4;overflow=hidden;rotatable=0;points=[[0,0.5],[1,0.5]];portConstraint=eastwest;fontStyle=0" vertex="1" parent="ElD5oWMp5ReGH6Nlb56h-3">
          <mxGeometry y="76" width="360" height="26" as="geometry" />
        </mxCell>
        <mxCell id="ElD5oWMp5ReGH6Nlb56h-9" value="- akkuLaufzeit: double" style="text;align=left;verticalAlign=top;spacingLeft=4;spacingRight=4;overflow=hidden;rotatable=0;points=[[0,0.5],[1,0.5]];portConstraint=eastwest;fontStyle=0" vertex="1" parent="ElD5oWMp5ReGH6Nlb56h-3">
          <mxGeometry y="102" width="360" height="26" as="geometry" />
        </mxCell>
        <mxCell id="ElD5oWMp5ReGH6Nlb56h-5" value="" style="line;strokeWidth=1;html=1;" vertex="1" parent="ElD5oWMp5ReGH6Nlb56h-3">
          <mxGeometry y="128" width="400" height="10" as="geometry" />
        </mxCell>
        <mxCell id="ElD5oWMp5ReGH6Nlb56h-10" value="~ Smartphone()" style="text;align=left;verticalAlign=top;spacingLeft=4;spacingRight=4;overflow=hidden;rotatable=0;points=[[0,0.5],[1,0.5]];portConstraint=eastwest;fontStyle=0" vertex="1" parent="ElD5oWMp5ReGH6Nlb56h-3">
          <mxGeometry y="138" width="400" height="26" as="geometry" />
        </mxCell>
        <mxCell id="ElD5oWMp5ReGH6Nlb56h-11" value="~ Smartphone(hersteller: String, modell: String, akkuLaufzeit: double)" style="text;align=left;verticalAlign=top;spacingLeft=4;spacingRight=4;overflow=hidden;rotatable=0;points=[[0,0.5],[1,0.5]];portConstraint=eastwest;fontStyle=0" vertex="1" parent="ElD5oWMp5ReGH6Nlb56h-3">
          <mxGeometry y="164" width="400" height="26" as="geometry" />
        </mxCell>
        <mxCell id="ElD5oWMp5ReGH6Nlb56h-20" value="~ Smartphone(hersteller: String)" style="text;align=left;verticalAlign=top;spacingLeft=4;spacingRight=4;overflow=hidden;rotatable=0;points=[[0,0.5],[1,0.5]];portConstraint=eastwest;fontStyle=0" vertex="1" parent="ElD5oWMp5ReGH6Nlb56h-3">
          <mxGeometry y="190" width="400" height="26" as="geometry" />
        </mxCell>
        <mxCell id="ElD5oWMp5ReGH6Nlb56h-21" value="~ Smartphone(hersteller: String, modell: String)" style="text;align=left;verticalAlign=top;spacingLeft=4;spacingRight=4;overflow=hidden;rotatable=0;points=[[0,0.5],[1,0.5]];portConstraint=eastwest;fontStyle=0" vertex="1" parent="ElD5oWMp5ReGH6Nlb56h-3">
          <mxGeometry y="216" width="400" height="26" as="geometry" />
        </mxCell>
        <mxCell id="ElD5oWMp5ReGH6Nlb56h-22" value="~ Smartphone(hersteller: String,Â  akkuLaufzeit: double)" style="text;align=left;verticalAlign=top;spacingLeft=4;spacingRight=4;overflow=hidden;rotatable=0;points=[[0,0.5],[1,0.5]];portConstraint=eastwest;fontStyle=0" vertex="1" parent="ElD5oWMp5ReGH6Nlb56h-3">
          <mxGeometry y="242" width="400" height="26" as="geometry" />
        </mxCell>
        <mxCell id="ElD5oWMp5ReGH6Nlb56h-23" value="~ Smartphone(akkuLaufzeit: double)" style="text;align=left;verticalAlign=top;spacingLeft=4;spacingRight=4;overflow=hidden;rotatable=0;points=[[0,0.5],[1,0.5]];portConstraint=eastwest;fontStyle=0" vertex="1" parent="ElD5oWMp5ReGH6Nlb56h-3">
          <mxGeometry y="268" width="400" height="26" as="geometry" />
        </mxCell>
        <mxCell id="ElD5oWMp5ReGH6Nlb56h-24" value="+ getCounter(): int" style="text;align=left;verticalAlign=top;spacingLeft=4;spacingRight=4;overflow=hidden;rotatable=0;points=[[0,0.5],[1,0.5]];portConstraint=eastwest;fontStyle=4" vertex="1" parent="ElD5oWMp5ReGH6Nlb56h-3">
          <mxGeometry y="294" width="400" height="26" as="geometry" />
        </mxCell>
        <mxCell id="ElD5oWMp5ReGH6Nlb56h-25" value="+ getHersteller(): String" style="text;align=left;verticalAlign=top;spacingLeft=4;spacingRight=4;overflow=hidden;rotatable=0;points=[[0,0.5],[1,0.5]];portConstraint=eastwest;fontStyle=0" vertex="1" parent="ElD5oWMp5ReGH6Nlb56h-3">
          <mxGeometry y="320" width="400" height="26" as="geometry" />
        </mxCell>
        <mxCell id="ElD5oWMp5ReGH6Nlb56h-26" value="+ setHersteller(hersteller: String): void" style="text;align=left;verticalAlign=top;spacingLeft=4;spacingRight=4;overflow=hidden;rotatable=0;points=[[0,0.5],[1,0.5]];portConstraint=eastwest;fontStyle=0" vertex="1" parent="ElD5oWMp5ReGH6Nlb56h-3">
          <mxGeometry y="346" width="400" height="26" as="geometry" />
        </mxCell>
        <mxCell id="ElD5oWMp5ReGH6Nlb56h-27" value="+ getModell(): String" style="text;align=left;verticalAlign=top;spacingLeft=4;spacingRight=4;overflow=hidden;rotatable=0;points=[[0,0.5],[1,0.5]];portConstraint=eastwest;fontStyle=0" vertex="1" parent="ElD5oWMp5ReGH6Nlb56h-3">
          <mxGeometry y="372" width="400" height="26" as="geometry" />
        </mxCell>
        <mxCell id="ElD5oWMp5ReGH6Nlb56h-28" value="+ setModell(modell: String): void" style="text;align=left;verticalAlign=top;spacingLeft=4;spacingRight=4;overflow=hidden;rotatable=0;points=[[0,0.5],[1,0.5]];portConstraint=eastwest;fontStyle=0" vertex="1" parent="ElD5oWMp5ReGH6Nlb56h-3">
          <mxGeometry y="398" width="400" height="26" as="geometry" />
        </mxCell>
        <mxCell id="ElD5oWMp5ReGH6Nlb56h-6" value="&lt;div&gt;+ -&amp;gt; public&lt;/div&gt;&lt;div&gt;# -&amp;gt; protected&lt;/div&gt;&lt;div&gt;~ -&amp;gt; package (no modifier)&lt;/div&gt;&lt;div&gt;- -&amp;gt; private&lt;/div&gt;&lt;div&gt;&lt;br&gt;&lt;/div&gt;&lt;div&gt;Statisches ist unterstrichen&lt;br&gt;&lt;/div&gt;" style="text;html=1;align=left;verticalAlign=middle;whiteSpace=wrap;rounded=0;fontFamily=Helvetica;fontSize=12;fontColor=default;" vertex="1" parent="WIyWlLk6GJQsqaUBKTNV-1">
          <mxGeometry x="300" y="590" width="200" height="130" as="geometry" />
        </mxCell>
      </root>
    </mxGraphModel>
  </diagram>
</mxfile>
